<svg width="244" height="77" viewBox="0 0 244 77" fill="none" xmlns="http://www.w3.org/2000/svg">
<path d="M21.0402 18.8875V58.1125M14.1231 27.0029V49.9971M7.21875 34.4431V42.5569M28.0039 27.0029V49.9971M35.2066 34.4431V42.5569M55.6149 18.8875V58.1125M48.6977 27.0029V49.9971M41.7934 34.4431V42.5569M62.5785 27.0029V49.9971M69.7812 34.4431V42.5569" stroke="white" stroke-width="2.2" stroke-linecap="round" stroke-linejoin="round"/>
<path d="M95.968 26.764C96.304 26.764 96.652 26.86 97.012 27.052C97.396 27.22 97.684 27.448 97.876 27.736L106.624 41.2L104.824 41.128L113.788 27.736C114.244 27.088 114.832 26.764 115.552 26.764C116.128 26.764 116.644 26.968 117.1 27.376C117.556 27.784 117.784 28.312 117.784 28.96V49.804C117.784 50.428 117.58 50.956 117.172 51.388C116.764 51.796 116.224 52 115.552 52C114.88 52 114.328 51.796 113.896 51.388C113.488 50.956 113.284 50.428 113.284 49.804V32.848L114.688 33.172L107.344 44.368C107.128 44.632 106.852 44.86 106.516 45.052C106.204 45.244 105.88 45.328 105.544 45.304C105.232 45.328 104.908 45.244 104.572 45.052C104.26 44.86 103.996 44.632 103.78 44.368L96.904 33.496L97.84 31.588V49.804C97.84 50.428 97.648 50.956 97.264 51.388C96.88 51.796 96.376 52 95.752 52C95.152 52 94.66 51.796 94.276 51.388C93.892 50.956 93.7 50.428 93.7 49.804V28.96C93.7 28.36 93.916 27.844 94.348 27.412C94.804 26.98 95.344 26.764 95.968 26.764ZM137.128 32.74C137.752 32.74 138.268 32.956 138.676 33.388C139.084 33.796 139.288 34.312 139.288 34.936V44.08C139.288 46.624 138.58 48.64 137.164 50.128C135.748 51.616 133.708 52.36 131.044 52.36C128.38 52.36 126.34 51.616 124.924 50.128C123.532 48.64 122.836 46.624 122.836 44.08V34.936C122.836 34.312 123.04 33.796 123.448 33.388C123.856 32.956 124.372 32.74 124.996 32.74C125.62 32.74 126.136 32.956 126.544 33.388C126.952 33.796 127.156 34.312 127.156 34.936V44.08C127.156 45.544 127.48 46.636 128.128 47.356C128.776 48.052 129.748 48.4 131.044 48.4C132.364 48.4 133.348 48.052 133.996 47.356C134.644 46.636 134.968 45.544 134.968 44.08V34.936C134.968 34.312 135.172 33.796 135.58 33.388C135.988 32.956 136.504 32.74 137.128 32.74ZM142.849 49.012C142.609 48.676 142.501 48.244 142.525 47.716C142.549 47.188 142.861 46.732 143.461 46.348C143.845 46.108 144.253 46.012 144.685 46.06C145.117 46.084 145.537 46.3 145.945 46.708C146.641 47.404 147.373 47.944 148.141 48.328C148.909 48.712 149.869 48.904 151.021 48.904C151.381 48.88 151.777 48.832 152.209 48.76C152.641 48.664 153.013 48.472 153.325 48.184C153.661 47.872 153.829 47.404 153.829 46.78C153.829 46.252 153.649 45.832 153.289 45.52C152.929 45.208 152.449 44.944 151.849 44.728C151.273 44.512 150.625 44.308 149.905 44.116C149.161 43.9 148.393 43.66 147.601 43.396C146.833 43.132 146.125 42.796 145.477 42.388C144.829 41.956 144.301 41.392 143.893 40.696C143.485 40 143.281 39.124 143.281 38.068C143.281 36.868 143.617 35.848 144.289 35.008C144.961 34.168 145.825 33.52 146.881 33.064C147.961 32.608 149.089 32.38 150.265 32.38C151.009 32.38 151.789 32.476 152.605 32.668C153.421 32.836 154.201 33.124 154.945 33.532C155.689 33.916 156.313 34.432 156.817 35.08C157.081 35.44 157.237 35.872 157.285 36.376C157.333 36.88 157.105 37.336 156.601 37.744C156.241 38.032 155.821 38.164 155.341 38.14C154.861 38.092 154.465 37.924 154.153 37.636C153.745 37.108 153.193 36.688 152.497 36.376C151.825 36.064 151.045 35.908 150.157 35.908C149.797 35.908 149.401 35.956 148.969 36.052C148.561 36.124 148.201 36.304 147.889 36.592C147.577 36.856 147.421 37.288 147.421 37.888C147.421 38.44 147.601 38.884 147.961 39.22C148.321 39.532 148.801 39.796 149.401 40.012C150.025 40.204 150.685 40.396 151.381 40.588C152.101 40.78 152.833 41.008 153.577 41.272C154.321 41.536 155.005 41.884 155.629 42.316C156.253 42.748 156.757 43.312 157.141 44.008C157.525 44.68 157.717 45.544 157.717 46.6C157.717 47.824 157.357 48.868 156.637 49.732C155.917 50.596 155.017 51.256 153.937 51.712C152.857 52.144 151.753 52.36 150.625 52.36C149.209 52.36 147.793 52.12 146.377 51.64C144.961 51.136 143.785 50.26 142.849 49.012ZM170.404 52.36C168.364 52.36 166.588 51.94 165.076 51.1C163.588 50.236 162.436 49.072 161.62 47.608C160.828 46.144 160.432 44.488 160.432 42.64C160.432 40.48 160.864 38.644 161.728 37.132C162.616 35.596 163.768 34.42 165.184 33.604C166.6 32.788 168.1 32.38 169.684 32.38C170.908 32.38 172.06 32.632 173.14 33.136C174.244 33.64 175.216 34.336 176.056 35.224C176.896 36.088 177.556 37.096 178.036 38.248C178.54 39.4 178.792 40.624 178.792 41.92C178.768 42.496 178.54 42.964 178.108 43.324C177.676 43.684 177.172 43.864 176.596 43.864H162.844L161.764 40.264H174.976L174.184 40.984V40.012C174.136 39.316 173.884 38.692 173.428 38.14C172.996 37.588 172.444 37.156 171.772 36.844C171.124 36.508 170.428 36.34 169.684 36.34C168.964 36.34 168.292 36.436 167.668 36.628C167.044 36.82 166.504 37.144 166.048 37.6C165.592 38.056 165.232 38.668 164.968 39.436C164.704 40.204 164.572 41.176 164.572 42.352C164.572 43.648 164.836 44.752 165.364 45.664C165.916 46.552 166.612 47.236 167.452 47.716C168.316 48.172 169.228 48.4 170.188 48.4C171.076 48.4 171.784 48.328 172.312 48.184C172.84 48.04 173.26 47.872 173.572 47.68C173.908 47.464 174.208 47.284 174.472 47.14C174.904 46.924 175.312 46.816 175.696 46.816C176.224 46.816 176.656 46.996 176.992 47.356C177.352 47.716 177.532 48.136 177.532 48.616C177.532 49.264 177.196 49.852 176.524 50.38C175.9 50.908 175.024 51.376 173.896 51.784C172.768 52.168 171.604 52.36 170.404 52.36ZM194.195 26.8C196.499 26.8 198.215 27.34 199.343 28.42C200.471 29.5 201.035 31.096 201.035 33.208C201.035 34.336 200.759 35.332 200.207 36.196C199.655 37.036 198.839 37.696 197.759 38.176C196.679 38.632 195.347 38.86 193.763 38.86L193.907 37.24C194.651 37.24 195.503 37.348 196.463 37.564C197.423 37.756 198.347 38.116 199.235 38.644C200.147 39.148 200.891 39.868 201.467 40.804C202.067 41.716 202.367 42.892 202.367 44.332C202.367 45.916 202.103 47.212 201.575 48.22C201.071 49.228 200.399 50.008 199.559 50.56C198.719 51.112 197.819 51.496 196.859 51.712C195.899 51.904 194.975 52 194.087 52H185.123C184.499 52 183.971 51.796 183.539 51.388C183.131 50.956 182.927 50.428 182.927 49.804V28.996C182.927 28.372 183.131 27.856 183.539 27.448C183.971 27.016 184.499 26.8 185.123 26.8H194.195ZM193.547 31.048H187.139L187.607 30.472V36.988L187.175 36.664H193.655C194.351 36.664 194.975 36.436 195.527 35.98C196.079 35.524 196.355 34.864 196.355 34C196.355 32.968 196.091 32.224 195.563 31.768C195.059 31.288 194.387 31.048 193.547 31.048ZM193.835 40.912H187.283L187.607 40.624V48.22L187.247 47.86H194.087C195.191 47.86 196.067 47.572 196.715 46.996C197.363 46.396 197.687 45.508 197.687 44.332C197.687 43.252 197.471 42.472 197.039 41.992C196.607 41.512 196.091 41.212 195.491 41.092C194.891 40.972 194.339 40.912 193.835 40.912ZM224.805 42.388C224.805 44.356 224.361 46.096 223.473 47.608C222.609 49.096 221.433 50.26 219.945 51.1C218.481 51.94 216.837 52.36 215.013 52.36C213.189 52.36 211.533 51.94 210.045 51.1C208.581 50.26 207.405 49.096 206.517 47.608C205.653 46.096 205.221 44.356 205.221 42.388C205.221 40.42 205.653 38.692 206.517 37.204C207.405 35.692 208.581 34.516 210.045 33.676C211.533 32.812 213.189 32.38 215.013 32.38C216.837 32.38 218.481 32.812 219.945 33.676C221.433 34.516 222.609 35.692 223.473 37.204C224.361 38.692 224.805 40.42 224.805 42.388ZM220.485 42.388C220.485 41.164 220.233 40.108 219.729 39.22C219.249 38.308 218.589 37.6 217.749 37.096C216.933 36.592 216.021 36.34 215.013 36.34C214.005 36.34 213.081 36.592 212.241 37.096C211.425 37.6 210.765 38.308 210.261 39.22C209.781 40.108 209.541 41.164 209.541 42.388C209.541 43.588 209.781 44.644 210.261 45.556C210.765 46.444 211.425 47.14 212.241 47.644C213.081 48.148 214.005 48.4 215.013 48.4C216.021 48.4 216.933 48.148 217.749 47.644C218.589 47.14 219.249 46.444 219.729 45.556C220.233 44.644 220.485 43.588 220.485 42.388ZM228.982 32.74C229.678 32.74 230.266 33.04 230.746 33.64L242.77 48.58C243.082 48.964 243.238 49.396 243.238 49.876C243.238 50.476 243.01 50.992 242.554 51.424C242.098 51.856 241.594 52.072 241.042 52.072C240.346 52.072 239.758 51.76 239.278 51.136L227.254 36.196C226.942 35.812 226.786 35.38 226.786 34.9C226.786 34.276 227.002 33.76 227.434 33.352C227.89 32.944 228.406 32.74 228.982 32.74ZM229.018 52.036C228.538 52.036 228.058 51.856 227.578 51.496C227.122 51.112 226.894 50.656 226.894 50.128C226.894 49.648 227.074 49.192 227.434 48.76L232.942 42.028L235.102 45.628L230.746 51.136C230.29 51.736 229.714 52.036 229.018 52.036ZM241.006 32.74C241.582 32.74 242.062 32.944 242.446 33.352C242.854 33.736 243.058 34.18 243.058 34.684C243.058 34.924 243.022 35.164 242.95 35.404C242.878 35.644 242.746 35.872 242.554 36.088L237.118 42.712L234.85 39.58L239.278 33.712C239.758 33.064 240.334 32.74 241.006 32.74Z" fill="white"/>
</svg>
